<?xml version="1.0" encoding="utf-8"?>
<!-- Generator: Adobe Illustrator 22.1.0, SVG Export Plug-In . SVG Version: 6.00 Build 0)  -->
<svg version="1.1" xmlns="http://www.w3.org/2000/svg" xmlns:xlink="http://www.w3.org/1999/xlink" x="0px" y="0px"
	 viewBox="0 0 150.4 139.6" style="enable-background:new 0 0 150.4 139.6;" xml:space="preserve">
<style type="text/css">
	.st0{display:none;}
	.st1{display:inline;fill:#161616;}
	.st2{display:none;fill:#FFFFFF;}
	.st3{fill:#FFFFFF;}
</style>
<g id="Layer_3" class="st0">
	<rect x="-52" y="-5.9" class="st1" width="240.9" height="155.9"/>
</g>
<g id="Layer_2">
	<polygon class="st2" points="43.3,95.9 75.2,41 107,95.9 82.5,82.4 81.7,82.4 75.4,102.3 75.4,57.6 66.6,83.3 	"/>
	<path class="st3" d="M5.1,124.4L74,5.7c0.5-0.9,1.9-0.9,2.4,0l68.8,118.6c0.7,1.2-0.6,2.6-1.9,1.9L91.8,97.9H90l-11.7,36.6
		c-0.5,1.5-2.7,1.2-2.7-0.4V49.8c0-1.6-2.2-1.9-2.7-0.4L55.8,99.5c-0.1,0.3-0.3,0.6-0.7,0.8L7,126.4C5.8,127,4.4,125.6,5.1,124.4z"
		/>
</g>
<g id="Layer_1" class="st0">
	
		<image style="display:inline;overflow:visible;" width="800" height="600" xlink:href="../../../../Desktop/paper_airplane.jpg"  transform="matrix(1 0 0 1 -332 -228)">
	</image>
</g>
</svg>
